# xmcd
#
# Track frame offsets:
#	182
#	24215
#	39567
#	54500
#	66535
#	78485
#	124245
#	136007
#	152570
#	166362
#	178707
#	191770
#
# Disc length: 2820 seconds
#
# Revision: 0
# Processed by: cddbd v1.5.2PL0 Copyright (c) Steve Scherf et al.
# Submitted via: EasyCDDAExtractor 12.0.7.1
#
DISCID=9e0b020c
DTITLE=Creedance Clearwater Revisited - Recollection [CD1]
DYEAR=1998
DGENRE=Oldies
TTITLE0=Born On the Bayou
TTITLE1=Green River
TTITLE2=Lodi
TTITLE3=Commotion
TTITLE4=Who´ll Stop the Rain
TTITLE5=Suzie Q
TTITLE6=Hey Tonight
TTITLE7=Long As I Can Seen the Light
TTITLE8=Down on the Corner
TTITLE9=Looking Out My Backdoor
TTITLE10=Cotton Fields
TTITLE11=Tombstone Shadow
EXTD=
EXTT0=
EXTT1=
EXTT2=
EXTT3=
EXTT4=
EXTT5=
EXTT6=
EXTT7=
EXTT8=
EXTT9=
EXTT10=
EXTT11=
PLAYORDER=
